<svg height="400" width="480" xmlns="http://www.w3.org/2000/svg">
<svg height="100" width="160" x="0" xmlns="http://www.w3.org/2000/svg" y="0">
<rect fill="white" height="100" stroke="black" stroke-width="3" width="160" x="0" y="0"/>
<svg xmlns="http://www.w3.org/2000/svg">
<rect fill="green" fill-opacity="0%" height="70" stroke="green" stroke-width="1" width="30" x="60" y="15"/>
</svg>
</svg>
<svg height="100" width="160" x="160" xmlns="http://www.w3.org/2000/svg" y="0">
<rect fill="white" height="100" stroke="black" stroke-width="3" width="160" x="0" y="0"/>
<svg xmlns="http://www.w3.org/2000/svg">
<circle cx="80" cy="50" fill="blue" fill-opacity="100%" r="15" stroke="blue" stroke-width="1"/>
</svg>
</svg>
<svg height="100" width="160" x="320" xmlns="http://www.w3.org/2000/svg" y="0">
<rect fill="white" height="100" stroke="black" stroke-width="3" width="160" x="0" y="0"/>
<svg xmlns="http://www.w3.org/2000/svg">
<circle cx="80" cy="50" fill="red" fill-opacity="50%" r="15" stroke="red" stroke-width="1"/>
</svg>
</svg>
<svg height="100" width="160" x="0" xmlns="http://www.w3.org/2000/svg" y="100">
<rect fill="white" height="100" stroke="black" stroke-width="3" width="160" x="0" y="0"/>
<svg xmlns="http://www.w3.org/2000/svg">
<rect fill="blue" fill-opacity="100%" height="70" stroke="blue" stroke-width="1" width="30" x="20" y="15"/>
<rect fill="blue" fill-opacity="100%" height="70" stroke="blue" stroke-width="1" width="30" x="60" y="15"/>
<rect fill="blue" fill-opacity="100%" height="70" stroke="blue" stroke-width="1" width="30" x="100" y="15"/>
</svg>
</svg>
<svg height="100" width="160" x="160" xmlns="http://www.w3.org/2000/svg" y="100">
<rect fill="white" height="100" stroke="black" stroke-width="3" width="160" x="0" y="0"/>
<svg xmlns="http://www.w3.org/2000/svg">
<ellipse cx="40" cy="50" fill="green" fill-opacity="50%" rx="15" ry="35" stroke="green" stroke-width="1"/>
<ellipse cx="80" cy="50" fill="green" fill-opacity="50%" rx="15" ry="35" stroke="green" stroke-width="1"/>
<ellipse cx="120" cy="50" fill="green" fill-opacity="50%" rx="15" ry="35" stroke="green" stroke-width="1"/>
</svg>
</svg>
<svg height="100" width="160" x="320" xmlns="http://www.w3.org/2000/svg" y="100">
<rect fill="white" height="100" stroke="black" stroke-width="3" width="160" x="0" y="0"/>
<svg xmlns="http://www.w3.org/2000/svg">
<rect fill="green" fill-opacity="100%" height="70" stroke="green" stroke-width="1" width="30" x="60" y="15"/>
</svg>
</svg>
<svg height="100" width="160" x="0" xmlns="http://www.w3.org/2000/svg" y="200">
<rect fill="white" height="100" stroke="black" stroke-width="3" width="160" x="0" y="0"/>
<svg xmlns="http://www.w3.org/2000/svg">
<circle cx="80" cy="50" fill="green" fill-opacity="100%" r="15" stroke="green" stroke-width="1"/>
</svg>
</svg>
<svg height="100" width="160" x="160" xmlns="http://www.w3.org/2000/svg" y="200">
<rect fill="white" height="100" stroke="black" stroke-width="3" width="160" x="0" y="0"/>
<svg xmlns="http://www.w3.org/2000/svg">
<circle cx="53" cy="50" fill="red" fill-opacity="50%" r="15" stroke="red" stroke-width="1"/>
<circle cx="106" cy="50" fill="red" fill-opacity="50%" r="15" stroke="red" stroke-width="1"/>
</svg>
</svg>
<svg height="100" width="160" x="320" xmlns="http://www.w3.org/2000/svg" y="200">
<rect fill="white" height="100" stroke="black" stroke-width="3" width="160" x="0" y="0"/>
<svg xmlns="http://www.w3.org/2000/svg">
<rect fill="red" fill-opacity="100%" height="70" stroke="red" stroke-width="1" width="30" x="60" y="15"/>
</svg>
</svg>
<svg height="100" width="160" x="0" xmlns="http://www.w3.org/2000/svg" y="300">
<rect fill="white" height="100" stroke="black" stroke-width="3" width="160" x="0" y="0"/>
<svg xmlns="http://www.w3.org/2000/svg">
<circle cx="40" cy="50" fill="green" fill-opacity="0%" r="15" stroke="green" stroke-width="1"/>
<circle cx="80" cy="50" fill="green" fill-opacity="0%" r="15" stroke="green" stroke-width="1"/>
<circle cx="120" cy="50" fill="green" fill-opacity="0%" r="15" stroke="green" stroke-width="1"/>
</svg>
</svg>
<svg height="100" width="160" x="160" xmlns="http://www.w3.org/2000/svg" y="300">
<rect fill="white" height="100" stroke="black" stroke-width="3" width="160" x="0" y="0"/>
<svg xmlns="http://www.w3.org/2000/svg">
<rect fill="blue" fill-opacity="50%" height="70" stroke="blue" stroke-width="1" width="30" x="33" y="15"/>
<rect fill="blue" fill-opacity="50%" height="70" stroke="blue" stroke-width="1" width="30" x="86" y="15"/>
</svg>
</svg>
<svg height="100" width="160" x="320" xmlns="http://www.w3.org/2000/svg" y="300">
<rect fill="white" height="100" stroke="black" stroke-width="3" width="160" x="0" y="0"/>
<svg xmlns="http://www.w3.org/2000/svg">
<circle cx="53" cy="50" fill="blue" fill-opacity="100%" r="15" stroke="blue" stroke-width="1"/>
<circle cx="106" cy="50" fill="blue" fill-opacity="100%" r="15" stroke="blue" stroke-width="1"/>
</svg>
</svg>
</svg>